<svg width="37" height="32" viewBox="0 0 37 32" fill="none" xmlns="http://www.w3.org/2000/svg">
<path d="M30.069 10.3718C29.6798 10.2405 29.2873 10.1189 28.8919 10.007C28.9583 9.74004 29.0194 9.47633 29.0737 9.21726C29.9649 4.96295 29.3823 1.53558 27.3924 0.407129C25.4846 -0.674679 22.3644 0.453351 19.2133 3.15043C18.9027 3.41671 18.5991 3.69067 18.3026 3.97204C18.1041 3.78494 17.9021 3.60147 17.6967 3.42172C14.3941 0.537929 11.0839 -0.677489 9.09614 0.454194C7.19 1.53937 6.62557 4.76134 7.42786 8.79325C7.50768 9.19257 7.5978 9.58983 7.69814 9.98464C7.22957 10.1156 6.77743 10.255 6.34471 10.4033C2.47271 11.731 0 13.8116 0 15.9697C0 18.1987 2.65457 20.4343 6.68743 21.79C7.01438 21.8994 7.34405 22.0009 7.67614 22.0941C7.56829 22.5194 7.47254 22.9475 7.389 23.378C6.62414 27.3399 7.22143 30.4857 9.12243 31.564C11.0859 32.6776 14.3813 31.5331 17.59 28.7745C17.8502 28.5503 18.1047 28.3196 18.3531 28.0829C18.6742 28.3875 19.0039 28.6833 19.3417 28.97C22.45 31.6003 25.5197 32.6624 27.4189 31.5812C29.3804 30.4644 30.018 27.0849 29.1903 22.9734C29.1251 22.6513 29.052 22.3307 28.971 22.0121C29.2024 21.9447 29.4296 21.8753 29.651 21.803C33.8436 20.437 36.5714 18.2284 36.5714 15.9697C36.5714 13.8037 34.0189 11.7091 30.069 10.3718ZM29.1597 20.3447C28.9597 20.4098 28.7546 20.4726 28.5454 20.5337C28.0826 19.0926 27.458 17.5604 26.6936 15.9772C27.423 14.4317 28.0236 12.919 28.4734 11.4874C28.8476 11.5939 29.2106 11.7061 29.5606 11.8246C32.9449 12.9704 35.0091 14.6644 35.0091 15.9697C35.0091 17.36 32.7797 19.165 29.1597 20.3447ZM27.6577 23.2718C28.0237 25.0898 28.0759 26.7336 27.8334 28.0187C27.6157 29.1734 27.1777 29.9432 26.636 30.2515C25.4836 30.9077 23.0189 30.0549 20.3607 27.8053C20.0465 27.5388 19.7398 27.2638 19.4411 26.9805C20.4717 25.8722 21.5016 24.5837 22.5067 23.1526C24.2747 22.9984 25.945 22.746 27.4597 22.4017C27.5327 22.6901 27.5987 22.9803 27.6577 23.2718ZM12.468 30.1382C11.342 30.5292 10.4451 30.5404 9.903 30.233C8.74943 29.5787 8.26986 27.0528 8.924 23.6646C9.00176 23.2642 9.09079 22.8661 9.191 22.4705C10.689 22.7965 12.3471 23.0308 14.1193 23.1722C15.1313 24.5725 16.1909 25.8595 17.2587 26.9866C17.0318 27.2025 16.7995 27.413 16.562 27.6177C15.143 28.8375 13.7211 29.7029 12.468 30.1382ZM7.19286 20.3361C5.40957 19.7366 3.93686 18.9576 2.92743 18.1075C2.02029 17.3436 1.56243 16.5851 1.56243 15.9697C1.56243 14.66 3.54771 12.9895 6.859 11.8542C7.26086 11.7165 7.68143 11.5866 8.11786 11.4646C8.57557 12.9286 9.17586 14.4593 9.90029 16.0071C9.16643 17.5778 8.55757 19.1329 8.09543 20.6142C7.7923 20.5288 7.49135 20.4361 7.19286 20.3361ZM8.96114 8.49807C8.27386 5.04373 8.73029 2.43798 9.879 1.78398C11.1024 1.0874 13.8079 2.08056 16.6594 4.57068C16.8454 4.73343 17.0283 4.89948 17.2081 5.06874C16.1456 6.19087 15.0957 7.46838 14.0927 8.8604C12.3727 9.0172 10.7263 9.26896 9.21257 9.60629C9.11931 9.23907 9.03547 8.86945 8.96114 8.49807ZM24.7364 12.3292C24.3789 11.7218 24.0081 11.1221 23.6243 10.5305C24.7911 10.6756 25.9091 10.8682 26.959 11.1037C26.6439 12.0973 26.251 13.1359 25.7886 14.2009C25.4506 13.5702 25.0998 12.9462 24.7364 12.3292ZM18.3033 6.16698C19.0239 6.93479 19.7456 7.79194 20.4554 8.72202C19.0154 8.65513 17.573 8.65485 16.133 8.72117C16.8436 7.79967 17.5714 6.94364 18.3033 6.16698ZM11.8289 12.3396C11.4701 12.9516 11.1258 13.5717 10.7964 14.1995C10.3416 13.1383 9.95229 12.0949 9.63443 11.0872C10.6779 10.8577 11.7906 10.67 12.95 10.5275C12.5619 11.1228 12.1881 11.7271 11.8289 12.3396ZM12.9833 21.5212C11.7854 21.3897 10.656 21.2117 9.61286 20.9883C9.93572 19.9627 10.3336 18.8971 10.7983 17.8131C11.129 18.4414 11.4746 19.0619 11.835 19.6741C12.2056 20.3035 12.5893 20.92 12.9833 21.5212ZM18.3464 25.8808C17.6059 25.0951 16.8673 24.2259 16.146 23.291C16.8463 23.318 17.5601 23.3318 18.2857 23.3318C19.0311 23.3318 19.768 23.3153 20.4933 23.2836C19.7811 24.2353 19.0621 25.1058 18.3464 25.8808ZM25.8033 17.7578C26.2921 18.8536 26.7041 19.9137 27.0313 20.9217C25.971 21.1597 24.8261 21.3514 23.6199 21.4937C24.0064 20.891 24.3807 20.2809 24.7426 19.6636C25.1105 19.0361 25.4641 18.4007 25.8033 17.7578ZM23.3893 18.8959C22.8353 19.8424 22.2502 20.7708 21.6349 21.6798C20.5202 21.7575 19.4031 21.796 18.2857 21.7955C17.1476 21.7955 16.0406 21.7606 14.9746 21.6926C14.3432 20.7857 13.7469 19.8556 13.187 18.9044C12.6297 17.9581 12.1094 16.9915 11.6267 16.0064C12.1081 15.0211 12.6271 14.0539 13.1824 13.107L13.1823 13.1071C13.7374 12.1599 14.329 11.2338 14.9556 10.3308C16.0431 10.2499 17.1584 10.2077 18.2856 10.2077C19.4179 10.2077 20.5347 10.2503 21.622 10.3318C22.2423 11.2335 22.83 12.1564 23.3841 13.0988C23.9413 14.0437 24.4671 15.0061 24.9607 15.9846C24.4722 16.9731 23.9481 17.9441 23.3893 18.8959ZM26.6121 1.73817C27.8367 2.43278 28.313 5.23382 27.5436 8.90705C27.4944 9.14139 27.4393 9.38009 27.3793 9.62217C25.8619 9.27767 24.2143 9.02155 22.4893 8.86237C21.4844 7.45504 20.4431 6.17555 19.3979 5.06789C19.6718 4.80819 19.9523 4.55522 20.239 4.30922C22.939 1.99851 25.4624 1.08614 26.6121 1.73817ZM18.2857 12.758C20.0893 12.758 21.5514 14.196 21.5514 15.9697C21.5514 17.7435 20.0893 19.1814 18.2857 19.1814C16.4821 19.1814 15.02 17.7435 15.02 15.9697C15.02 14.196 16.4821 12.758 18.2857 12.758Z" fill="#61DAFB"/>
</svg>
