<svg width="56" height="56" viewBox="0 0 56 56" fill="none" xmlns="http://www.w3.org/2000/svg">
<path fill-rule="evenodd" clip-rule="evenodd" d="M0 56V11.9411L11.9411 0H56V44.3137L44.3137 56H0Z" fill="#41CD52"/>
<path d="M14.9844 31.998L18.7734 35.0059L17.0547 36.5L13.3242 33.5117L14.9844 31.998ZM18.8418 26.5293V27.2617C18.8418 28.3359 18.6986 29.3027 18.4121 30.1621C18.1257 31.015 17.7155 31.7409 17.1816 32.3398C16.6543 32.9388 16.026 33.3978 15.2969 33.7168C14.5677 34.0358 13.7604 34.1953 12.875 34.1953C11.9961 34.1953 11.1888 34.0358 10.4531 33.7168C9.72396 33.3978 9.09245 32.9388 8.55859 32.3398C8.02474 31.7409 7.61133 31.015 7.31836 30.1621C7.02539 29.3027 6.87891 28.3359 6.87891 27.2617V26.5293C6.87891 25.4486 7.02214 24.4818 7.30859 23.6289C7.60156 22.776 8.01172 22.0501 8.53906 21.4512C9.07292 20.8457 9.70443 20.3835 10.4336 20.0645C11.1693 19.7454 11.9766 19.5859 12.8555 19.5859C13.7409 19.5859 14.5482 19.7454 15.2773 20.0645C16.013 20.3835 16.6445 20.8457 17.1719 21.4512C17.7057 22.0501 18.1159 22.776 18.4023 23.6289C18.6953 24.4818 18.8418 25.4486 18.8418 26.5293ZM16.127 27.2617V26.5098C16.127 25.735 16.0553 25.0547 15.9121 24.4688C15.7689 23.8763 15.554 23.3783 15.2676 22.9746C14.9876 22.571 14.6458 22.2682 14.2422 22.0664C13.8385 21.8581 13.3763 21.7539 12.8555 21.7539C12.3411 21.7539 11.8822 21.8581 11.4785 22.0664C11.0749 22.2682 10.7331 22.571 10.4531 22.9746C10.1732 23.3783 9.95833 23.8763 9.80859 24.4688C9.66536 25.0547 9.59375 25.735 9.59375 26.5098V27.2617C9.59375 28.0299 9.66536 28.7103 9.80859 29.3027C9.95833 29.8952 10.1732 30.3965 10.4531 30.8066C10.7396 31.2103 11.0846 31.5163 11.4883 31.7246C11.8984 31.9329 12.3607 32.0371 12.875 32.0371C13.3958 32.0371 13.8581 31.9329 14.2617 31.7246C14.6654 31.5163 15.0039 31.2103 15.2773 30.8066C15.5573 30.3965 15.7689 29.8952 15.9121 29.3027C16.0553 28.7103 16.127 28.0299 16.127 27.2617ZM23.5184 19.7812H25.8426L29.7293 30.4844L33.6062 19.7812H35.9402L30.657 34H28.7918L23.5184 19.7812ZM22.3465 19.7812H24.6219L25.032 29.6152V34H22.3465V19.7812ZM34.827 19.7812H37.1121V34H34.4266V29.6152L34.827 19.7812ZM50.0699 31.8906V34H42.9215V31.8906H50.0699ZM43.732 19.7812V34H41.0465V19.7812H43.732Z" fill="white"/>
</svg>
