<svg width="32" height="32" viewBox="0 0 32 32" fill="none" xmlns="http://www.w3.org/2000/svg">
<g clip-path="url(#clip0_192_21)">
<path d="M31 9.40783C31.0111 8.90962 30.8842 8.41793 30.633 7.98611C30.3696 7.56214 29.9968 7.21539 29.553 6.98154C25.5577 4.7964 21.5603 2.6124 17.5611 0.42954C17.0789 0.142226 16.5259 -0.00729067 15.9632 -0.00244954C15.4005 0.00239159 14.8501 0.161401 14.373 0.456969C12.783 1.34725 4.82496 5.67411 2.45265 6.97811C2.00121 7.20272 1.62435 7.55095 1.36684 7.98145C1.10933 8.41195 0.981994 8.90662 0.999961 9.40668V22.5941C0.988304 23.0811 1.10778 23.5623 1.34611 23.9884C1.61111 24.4246 1.99186 24.7803 2.44688 25.017C4.81919 26.321 12.7784 30.6478 14.3684 31.5381C14.8453 31.834 15.3955 31.9934 15.9582 31.9987C16.5209 32.0039 17.0741 31.8548 17.5565 31.5678C21.5488 29.3804 25.5434 27.1964 29.5403 25.0158C29.9955 24.7789 30.3765 24.4232 30.6423 23.9873C30.8806 23.5612 31.0001 23.0799 30.9884 22.593V9.40783" fill="#659AD2"/>
<path d="M30.4796 24.1954C30.54 24.1292 30.5966 24.0598 30.6492 23.9874C30.8876 23.5613 31.007 23.0801 30.9954 22.5931V9.40798C31.0065 8.90977 30.8796 8.41808 30.6285 7.98626C30.5869 7.91883 30.5258 7.86626 30.4785 7.80341L16 16L30.4796 24.1954Z" fill="#00599C"/>
<path d="M30.4796 24.1954L16 16L1.52039 24.1954C1.76523 24.5356 2.08428 24.8169 2.45385 25.0183C4.82616 26.3223 12.7854 30.6491 14.3754 31.5394C14.8522 31.8353 15.4025 31.9948 15.9652 32C16.5279 32.0052 17.0811 31.8561 17.5635 31.5691C21.5558 29.3817 25.5504 27.1977 29.5473 25.0171C29.9165 24.8161 30.2351 24.5352 30.4796 24.1954Z" fill="#004482"/>
<path d="M20.1538 18.3085C19.6398 19.2139 18.838 19.9256 17.8733 20.3328C16.9086 20.74 15.835 20.8199 14.8197 20.5601C13.8043 20.3003 12.9042 19.7153 12.2594 18.8962C11.6145 18.0771 11.2611 17.0699 11.2542 16.0312C11.2473 14.9926 11.5872 13.9808 12.2211 13.1533C12.8549 12.3259 13.7472 11.7292 14.759 11.4561C15.7707 11.183 16.8453 11.2489 17.8153 11.6434C18.7854 12.038 19.5966 12.7391 20.1226 13.6377L24.2938 11.2685C23.235 9.46885 21.6082 8.0639 19.664 7.27008C17.7198 6.47626 15.566 6.33762 13.5344 6.8755C11.5028 7.41338 9.70605 8.59796 8.42103 10.2467C7.136 11.8955 6.43393 13.9171 6.42298 15.9999C6.4209 17.6516 6.8587 19.2746 7.69221 20.7051C8.53625 22.15 9.74949 23.3493 11.2099 24.1824C12.6704 25.0155 14.3266 25.4531 16.0119 25.4511C17.6973 25.4492 19.3524 25.0077 20.8109 24.1712C22.2693 23.3347 23.4797 22.1325 24.3203 20.6857L20.1538 18.3085Z" fill="white"/>
<path d="M25.3184 15.472H24.2499V14.4194H23.1826V15.472H22.1141V16.5269H23.1826V17.5783H24.2499V16.5269H25.3184V15.472ZM29.3257 15.472H28.2572V14.4194H27.1888V15.472H26.1203V16.5269H27.1888V17.5783H28.2572V16.5269H29.3257V15.472Z" fill="white"/>
</g>
<defs>
<clipPath id="clip0_192_21">
<rect width="30" height="32" fill="white" transform="translate(1)"/>
</clipPath>
</defs>
</svg>
