<svg width="32" height="32" viewBox="0 0 32 32" fill="none" xmlns="http://www.w3.org/2000/svg">
<path d="M5.17338 32H0V26.1759C0.973938 28.647 2.8545 30.7048 5.17338 32ZM0 13.3076V18.9202C3.4045 9.59637 17.2708 9.77081 18.2369 19.7011C18.5731 28.7359 6.48006 29.2475 6.40975 22.4667C6.53119 20.7736 7.83081 19.6278 9.50075 19.6848C8.14869 21.1996 9.52225 23.5586 11.5181 23.0849C13.0704 22.7848 14.1822 21.4121 14.1535 19.8312C13.3638 13.8522 3.09056 15.8231 3.20487 22.6456C3.091 27.0381 7.20694 29.9339 11.3391 29.9827C17.7163 30.0966 21.3767 26.0458 21.3767 20.0753C21.1059 9.52838 7.87544 5.48012 0 13.3075M25.4764 20.0752C25.7164 24.9943 23.1349 29.6209 18.8226 31.9999H32V0H0V9.20794C9.42194 1.93937 25.3638 5.96844 25.4764 20.0753" fill="#F47734"/>
</svg>
