<svg width="32" height="32" viewBox="0 0 32 32" fill="none" xmlns="http://www.w3.org/2000/svg">
<g clip-path="url(#clip0_140_42)">
<path d="M15.8644 0.0090332C7.76044 0.0090332 8.26644 3.53719 8.26644 3.53719L8.27544 7.19247H16.0089V8.28988H5.20382C5.20382 8.28988 0.0180664 7.69945 0.0180664 15.9084C0.0180664 24.1176 4.54432 23.8264 4.54432 23.8264H7.24557V20.0171C7.24557 20.0171 7.09994 15.4731 11.6996 15.4731H19.3698C19.3698 15.4731 23.6792 15.543 23.6792 11.2919V4.2629C23.6792 4.2629 24.3337 0.0090332 15.8644 0.0090332ZM11.6002 2.46714C11.7829 2.46697 11.9639 2.50298 12.1328 2.57312C12.3017 2.64325 12.4551 2.74612 12.5843 2.87585C12.7135 3.00558 12.816 3.15962 12.8859 3.32915C12.9557 3.49868 12.9916 3.68038 12.9914 3.86384C12.9916 4.04731 12.9557 4.229 12.8859 4.39853C12.816 4.56806 12.7135 4.7221 12.5843 4.85183C12.4551 4.98156 12.3017 5.08443 12.1328 5.15457C11.9639 5.2247 11.7829 5.26071 11.6002 5.26055C11.4174 5.26071 11.2365 5.2247 11.0676 5.15457C10.8987 5.08443 10.7453 4.98156 10.6161 4.85183C10.4868 4.7221 10.3844 4.56806 10.3145 4.39853C10.2447 4.229 10.2088 4.04731 10.2089 3.86384C10.2088 3.68038 10.2447 3.49868 10.3145 3.32915C10.3844 3.15962 10.4868 3.00558 10.6161 2.87585C10.7453 2.74612 10.8987 2.64325 11.0676 2.57312C11.2365 2.50298 11.4174 2.46697 11.6002 2.46714Z" fill="url(#paint0_linear_140_42)"/>
<path d="M16.0947 31.8903C24.1987 31.8903 23.6927 28.3622 23.6927 28.3622L23.6837 24.707H15.95V23.6096H26.7552C26.7552 23.6096 31.9409 24.2001 31.9409 15.9909C31.9409 7.7818 27.4147 8.07293 27.4147 8.07293H24.7134V11.8822C24.7134 11.8822 24.859 16.4262 20.2594 16.4262H12.5892C12.5892 16.4262 8.27979 16.3563 8.27979 20.6075V27.6366C8.27979 27.6366 7.62541 31.8903 16.0945 31.8903M20.3588 29.4325C20.176 29.4327 19.9951 29.3966 19.8262 29.3265C19.6573 29.2564 19.5039 29.1535 19.3747 29.0238C19.2454 28.894 19.143 28.74 19.0731 28.5705C19.0033 28.4009 18.9674 28.2193 18.9675 28.0358C18.9674 27.8523 19.0032 27.6706 19.0731 27.5011C19.1429 27.3315 19.2454 27.1775 19.3746 27.0477C19.5038 26.918 19.6573 26.8151 19.8262 26.745C19.995 26.6748 20.176 26.6388 20.3588 26.639C20.5415 26.6388 20.7225 26.6748 20.8914 26.7449C21.0603 26.8151 21.2137 26.9179 21.3429 27.0477C21.4721 27.1774 21.5746 27.3314 21.6445 27.501C21.7143 27.6705 21.7502 27.8522 21.75 28.0357C21.7502 28.2191 21.7143 28.4008 21.6445 28.5704C21.5746 28.7399 21.4721 28.8939 21.3429 29.0236C21.2137 29.1534 21.0603 29.2563 20.8914 29.3264C20.7225 29.3965 20.5415 29.4327 20.3588 29.4325Z" fill="url(#paint1_linear_140_42)"/>
</g>
<defs>
<linearGradient id="paint0_linear_140_42" x1="306.795" y1="286.762" x2="1894.92" y2="1852.9" gradientUnits="userSpaceOnUse">
<stop stop-color="#387EB8"/>
<stop offset="1" stop-color="#366994"/>
</linearGradient>
<linearGradient id="paint1_linear_140_42" x1="461.082" y1="498.236" x2="2166.24" y2="2103.88" gradientUnits="userSpaceOnUse">
<stop stop-color="#FFE052"/>
<stop offset="1" stop-color="#FFC331"/>
</linearGradient>
<clipPath id="clip0_140_42">
<rect width="32" height="32" fill="white"/>
</clipPath>
</defs>
</svg>
