<svg width="32" height="32" viewBox="0 0 32 32" fill="none" xmlns="http://www.w3.org/2000/svg">
<g clip-path="url(#clip0_142_22)">
<path d="M24.5 0H7.5C3.35786 0 0 3.35786 0 7.5V24.5C0 28.6421 3.35786 32 7.5 32H24.5C28.6421 32 32 28.6421 32 24.5V7.5C32 3.35786 28.6421 0 24.5 0Z" fill="#F0DB4F"/>
<path d="M8.41394 26.7415L10.8627 25.2595C11.3352 26.0971 11.7649 26.8059 12.7958 26.8059C13.7839 26.8059 14.4069 26.4194 14.4069 24.9159V14.6911H17.4142V24.9584C17.4142 28.073 15.5884 29.4907 12.9247 29.4907C10.5191 29.4907 9.12269 28.2449 8.41382 26.7412M19.0476 26.4192L21.4961 25.0016C22.1407 26.0542 22.9784 26.8275 24.4604 26.8275C25.7066 26.8275 26.5011 26.2045 26.5011 25.3452C26.5011 24.3142 25.6848 23.949 24.3101 23.3477L23.5584 23.0254C21.3888 22.1019 19.9496 20.9419 19.9496 18.4931C19.9496 16.2376 21.6681 14.5191 24.3532 14.5191C26.2649 14.5191 27.6397 15.1851 28.6277 16.925L26.2863 18.4286C25.7707 17.505 25.2124 17.1399 24.3532 17.1399C23.4724 17.1399 22.9139 17.6984 22.9139 18.4286C22.9139 19.3307 23.4724 19.696 24.7612 20.2546L25.5129 20.5767C28.0691 21.6724 29.5083 22.7891 29.5083 25.3022C29.5083 28.009 27.3818 29.491 24.5249 29.491C21.7326 29.491 19.9282 28.1592 19.0476 26.4192Z" fill="#323330"/>
</g>
<defs>
<clipPath id="clip0_142_22">
<rect width="32" height="32" fill="white"/>
</clipPath>
</defs>
</svg>
