<svg width="26" height="28" viewBox="0 0 26 28" fill="none" xmlns="http://www.w3.org/2000/svg">
<g clip-path="url(#clip0_142_16)">
<path d="M26 8.23202C26.0096 7.79609 25.8996 7.36585 25.682 6.98802C25.4536 6.61704 25.1306 6.31363 24.746 6.10902C21.2833 4.19702 17.819 2.28602 14.353 0.376016C13.9351 0.124615 13.4558 -0.00621149 12.9681 -0.0019755C12.4804 0.00226049 12.0034 0.141394 11.59 0.400016C10.212 1.17902 3.31498 4.96502 1.25898 6.10602C0.867732 6.30254 0.541119 6.60725 0.317944 6.98394C0.094768 7.36062 -0.0155892 7.79346 -1.76072e-05 8.23102V19.77C-0.0101201 20.1961 0.0934278 20.6172 0.299982 20.99C0.529644 21.3717 0.859624 21.683 1.25398 21.89C3.30998 23.031 10.208 26.817 11.586 27.596C11.9993 27.8549 12.4761 27.9944 12.9638 27.999C13.4515 28.0036 13.9309 27.8731 14.349 27.622C17.809 25.708 21.271 23.797 24.735 21.889C25.1294 21.6817 25.4596 21.3705 25.69 20.989C25.8965 20.6162 26.0001 20.1951 25.99 19.769V8.23202" fill="#659AD2"/>
<path d="M25.549 21.171C25.6013 21.1131 25.6504 21.0523 25.696 20.989C25.9026 20.6162 26.0061 20.1951 25.996 19.769V8.232C26.0056 7.79608 25.8956 7.36584 25.678 6.988C25.642 6.929 25.589 6.883 25.548 6.828L13 14L25.549 21.171Z" fill="#00599C"/>
<path d="M25.549 21.171L13 14L0.45105 21.171C0.663249 21.4687 0.939754 21.7148 1.26005 21.891C3.31605 23.032 10.214 26.818 11.592 27.597C12.0053 27.8559 12.4822 27.9954 12.9699 28C13.4575 28.0046 13.937 27.8741 14.355 27.623C17.815 25.709 21.277 23.798 24.741 21.89C25.061 21.7141 25.3372 21.4683 25.549 21.171Z" fill="#004482"/>
<path d="M16.6 16.02C16.1545 16.8122 15.4597 17.4349 14.6236 17.7912C13.7875 18.1475 12.8571 18.2174 11.9771 17.9901C11.0971 17.7628 10.317 17.2509 9.75815 16.5342C9.19928 15.8175 8.893 14.9362 8.887 14.0273C8.881 13.1185 9.1756 12.2332 9.72495 11.5092C10.2743 10.7851 11.0476 10.263 11.9245 10.0241C12.8013 9.78515 13.7326 9.84278 14.5733 10.188C15.4141 10.5333 16.1171 11.1467 16.573 11.933L20.188 9.85998C19.2704 8.28527 17.8605 7.05594 16.1755 6.36134C14.4905 5.66675 12.6239 5.54544 10.8632 6.01608C9.10243 6.48673 7.54529 7.52323 6.4316 8.96592C5.31791 10.4086 4.70945 12.1775 4.69996 14C4.69815 15.4452 5.07758 16.8653 5.79996 18.117C6.53145 19.3813 7.58293 20.4306 8.84865 21.1596C10.1144 21.8886 11.5497 22.2715 13.0104 22.2698C14.471 22.2681 15.9054 21.8818 17.1694 21.1498C18.4334 20.4178 19.4824 19.366 20.211 18.1L16.6 16.02Z" fill="white"/>
<path d="M21.076 13.538H20.15V12.617H19.225V13.538H18.299V14.461H19.225V15.381H20.15V14.461H21.076V13.538ZM24.549 13.538H23.6229V12.617H22.697V13.538H21.771V14.461H22.697V15.381H23.6229V14.461H24.549V13.538Z" fill="white"/>
</g>
<defs>
<clipPath id="clip0_142_16">
<rect width="26" height="28" fill="white"/>
</clipPath>
</defs>
</svg>
